<svg version="1.2" xmlns="http://www.w3.org/2000/svg" viewBox="0 0 100 100" width="100" height="100">
	<title>file</title>
	<style>
		.s0 { fill: #000000 } 
	</style>
	<g id="Folder 1">
		<path class="s0" d="m30.6 66.3c-0.4-1-1.2-1.4-2.3-2.1 0.8 4.1 2.9 7.3 5.4 10.3 1.2 1.5 2.8 2.7 4.2 4.1 1.1 1.1 2.5 2.2 1.9 4.1-0.5 2-2.2 2.9-4 3.1-7.3 0.8-14.5 0.5-20.9-3.7q-9.5-6.2-8.6-17.7c0.5-5.9 2.8-11.4 4.6-16.9 1.6-4.6 3.2-9.1 4.8-13.6 2.1-5.8 4.9-11.1 10.3-14.6 1.5-0.9 2.4-1.9 2.2-3.7-0.1-1.4 0.7-2.2 2.1-2.2q1.6 0.1 3.2 0c1.6 0 2.6 0.5 2.4 2.3 0 0.3 0 0.7 0.5 1.1 9.3-4.2 18.8-4.3 28.2 0 0.5-0.7 0.3-1.2 0.4-1.7 0.2-1 0.7-1.6 1.7-1.6q1-0.1 1.9-0.1c3.9 0 3.9 0 4.2 3.8 0 0.7 0.2 1.1 0.8 1.4 5.8 3.5 9 8.8 11.2 15 2.4 6.8 5 13.6 7.3 20.5 1.2 3.6 2.2 7.3 2.4 11.1 0.6 9-5 15.8-12.6 19-5.4 2.2-11.1 2.3-16.7 1.6-1.4-0.1-2.8-0.6-3.7-1.8-1.3-1.7-0.8-3.8 1.5-5.6 2.8-2.4 5.2-5.1 7.1-8.3 1-1.7 1.7-3.6 2.2-5.7-1.7 0.1-3.2 0-4.6 1.2-1.2 1.1-2.9 1.5-4.6 1.5-8.3 0-16.6 0.1-24.8 0.1-1 0-2-0.1-2.9-0.5 0.1 2 0.6 2.1 2.2 1.4 2.3-0.9 4.7-0.5 7-0.2 0.5 0.1 0.6 0.7 0.7 1.1 0.5 4 0.1 4.2-3.8 4.5-2.6 0.2-4.7-1.3-7.1-1.5-0.7-0.1-0.9-0.8-1.3-1.4-0.8-1.4-1.6-2.8-2.5-4.3zm29.4-29.3c5.7 3.5 8.9 8.7 11 14.8 0.8 2.4 0.7 5 0.8 7.7 5.1-4.9 7.4-15 4.1-24.9-3.5-10.4-14.1-18.3-27-17.5-10.8 0.6-20.9 7.1-24.6 19.6-2.5 8.8 0 17.7 4.5 22.2 0.1-0.4 0.1-0.8 0.1-1.1 0.2-4.6 1.8-8.7 4.2-12.5q2.3-3.8 5.5-6.9c2.1-2 4.4-1.5 5.5 1.2 0.4 1.1 0.8 2.3 1.3 3.4 1.3 3 2.9 5.8 5.4 8.2 0.6-0.8 0.8-1.5 1.1-2.2q1.7-5.3 4.2-10.2c0.8-1.6 2-2.2 3.9-1.8zm-41.7-0.5c-0.6 1.8-1.3 3.5-1.8 5.4-2.1 6.8-5 13.3-6.5 20.4-1.5 7.1 1 13.3 7.1 17.3 5.6 3.5 11.7 3.3 17.8 2.8 0.4 0 0.8-0.1 1-0.6 0-0.1 0-0.3-0.2-0.4q-0.8-1-1.8-1.9c-4.8-4.5-8.4-9.8-9.3-16.3-0.5-2.8-0.8-5.5-2.2-7.9-0.4-0.7-0.8-1.4-1-2.2-3.3-10.5-1.1-19.9 5.5-28.5 0.5-0.7 1.3-1.2 1.1-2.3-1 0.2-1.5 0.9-2.1 1.4-3.9 3.3-5.8 7.9-7.6 12.8zm55.9-13.4c-0.4-0.1-0.6-0.6-1.1-0.2 2.5 3.4 4.7 6.9 6.1 11 2.2 6.6 2.5 13.2 0 19.8-1.3 3.4-2.9 6.6-3.4 10.4-0.9 6.7-5 11.8-9.9 16.2-0.5 0.5-1.3 0.8-1.3 1.7 0.6 0.5 1.3 0.6 2 0.6 3.4 0 6.9 0.3 10.3-0.4 5.6-1.3 10.2-4.1 12.8-9.5 2.3-4.9 1.5-9.9 0-14.7-2.6-8.2-5.5-16.2-8.5-24.3-1.4-4-3.5-7.7-7-10.6zm-41.8 34.1c0.1 4.3 2 6.6 6.1 6.6q12 0.2 23.9 0c4.1-0.1 6.2-2.6 6-6.7-0.3-4.3-1.7-8.2-4.4-11.6-1.4-1.8-2.7-3.7-4.7-5-0.7 0.6-0.9 1.4-1.3 2-1.5 3.1-2.5 6.4-3.6 9.7-1 2.8-3.6 3.5-5.8 1.4-2.4-2.2-4.3-5-5.7-7.9-0.7-1.5-0.9-3.1-2.2-4.5-4.4 4.4-7.5 9.4-8.3 16z"/>
		<path class="s0" d="m56.8 49.4c0.7-1.3 1.7-1.6 3-1.5 1.3 0.2 1.9 1.4 2.2 2.4 0.5 1.4 0.5 2.8-0.1 4.2-0.5 1.2-1.3 2.1-2.7 2.1-1.2 0-1.8-0.8-2.4-1.7-0.9-1.2 0.2-1.8 0.7-2.7-0.4-0.8-1.7-1.4-0.7-2.8z"/>
		<path class="s0" d="m42.2 56.1c-1.5 0.9-2.6 0.5-3.6-0.6-1.1-1.3-0.6-2.3 0.5-3.2-1.3-1.8-1.3-2.9 0-3.9 0.9-0.8 2.7-0.7 3.4 0.3 1 1.2 1.7 2.7 1.3 4.3-0.2 1.1-0.5 2.2-1.6 3.1z"/>
	</g>
</svg>